<svg
   version="1.1"
   id="Layer_1"
   x="0px"
   y="0px"
   width="510.90851"
   viewBox="0 0 510.90851 504.94424"
   enable-background="new 0 0 1024 1024"
   xml:space="preserve"
   height="504.94424"
   xmlns="http://www.w3.org/2000/svg"
   xmlns:svg="http://www.w3.org/2000/svg"><defs
   id="defs1" />
<ellipse
   style="fill:#f8f8f8;fill-opacity:1;stroke-width:0.724902"
   id="path2"
   cx="255.45425"
   cy="252.47212"
   rx="255.45425"
   ry="252.47212" /><path
   fill="#000000"
   opacity="1"
   stroke="none"
   d="m 311.3959,371.58329 c -32.93666,23.69315 -69.24064,39.09198 -110.00975,44.64911 -31.61157,4.30888 -42.95326,22.03311 -93.44621,15.84662 -38.642126,-4.7345 -13.191926,-3.57211 -17.770616,-15.32861 -2.11815,-1.45931 -4.02205,-0.27897 -5.84587,0.45574 -5.58556,2.24993 -11.12094,4.61059 -16.67185,6.93677 -3.99299,1.67337 -8.02955,3.17865 -12.31949,4.11383 -3.96269,0.86393 -7.6942,0.8236 -10.49482,-2.21944 -2.80571,-3.04875 -1.63633,-6.54175 0.0363,-9.59144 5.83985,-10.64791 12.05125,-21.11572 17.83872,-31.78804 13.66368,-25.19637 23.98655,-51.80486 36.64941,-77.42727 20.548066,-41.57753 48.255036,-78.5386 80.988186,-112.35338 13.80576,-14.26195 29.63126,-26.83792 41.19605,-42.97639 8.3949,-11.7149 14.86494,-24.55793 23.56233,-36.11397 13.76637,-18.291099 31.20512,-31.897529 54.97177,-36.533909 30.89158,-6.02642 58.63714,0.74289 81.66708,21.173059 7.5704,6.71576 15.51394,10.02345 25.50812,11.09666 12.58641,1.35156 24.40857,5.2342 34.77724,12.41042 1.22376,0.84697 2.54093,1.61155 3.6125,2.60752 1.57743,1.46625 4.1876,2.6585 3.81173,5.00918 -0.46494,2.90815 -3.6475,2.01282 -5.66406,2.39462 -14.17496,2.68358 -27.8388,7.0604 -41.65691,10.92788 -2.99578,0.83846 -5.47866,2.4136 -7.61853,4.52604 -15.08658,14.89332 -22.56684,31.82742 -17.19187,52.79623 3.20004,12.48381 5.49365,25.14429 5.40548,38.13996 -0.25499,37.573 -13.28471,70.71412 -37.9502,100.06472 -9.73365,11.58242 -20.84484,21.76608 -33.38471,31.18409 m 15.53405,-263.52871 c -5.26307,2.8462 -8.57883,8.458 -7.51703,16.14599 0.54989,3.98151 4.02854,6.9277 11.31713,9.04712 5.82704,1.69443 12.33747,1.11506 15.50615,-4.32505 3.40266,-5.84182 4.29317,-11.10951 -0.68249,-16.72929 -3.26683,-3.68972 -10.56858,-6.20574 -18.62376,-4.13877 z"
   id="path1"
   style="fill:#161617;fill-opacity:1;stroke-width:1.1067" />
</svg>